<mxfile host="app.diagrams.net" agent="Mozilla/5.0 (X11; Linux x86_64) AppleWebKit/537.36 (KHTML, like Gecko) Chrome/132.0.0.0 Safari/537.36" version="26.0.5">
  <diagram name="Página-1" id="XR2plymSwB8FU3FbK-sj">
    <mxGraphModel dx="1147" dy="637" grid="1" gridSize="10" guides="1" tooltips="1" connect="1" arrows="1" fold="1" page="1" pageScale="1" pageWidth="827" pageHeight="1169" math="0" shadow="0">
      <root>
        <mxCell id="0" />
        <mxCell id="1" parent="0" />
        <mxCell id="oAKdzVdlAC4p8UOdl3zT-9" value="" style="group" vertex="1" connectable="0" parent="1">
          <mxGeometry x="180" y="370" width="210" height="190" as="geometry" />
        </mxCell>
        <mxCell id="oAKdzVdlAC4p8UOdl3zT-1" value="" style="rounded=0;whiteSpace=wrap;html=1;" vertex="1" parent="oAKdzVdlAC4p8UOdl3zT-9">
          <mxGeometry width="210" height="190" as="geometry" />
        </mxCell>
        <mxCell id="oAKdzVdlAC4p8UOdl3zT-2" value="ESP-IDF / CMSIS&amp;nbsp;" style="rounded=0;whiteSpace=wrap;html=1;fillColor=#f5f5f5;fontColor=#333333;strokeColor=#666666;" vertex="1" parent="oAKdzVdlAC4p8UOdl3zT-9">
          <mxGeometry y="160" width="210" height="30" as="geometry" />
        </mxCell>
        <mxCell id="oAKdzVdlAC4p8UOdl3zT-3" value="IMS" style="rounded=0;whiteSpace=wrap;html=1;fillColor=#f8cecc;strokeColor=#b85450;" vertex="1" parent="oAKdzVdlAC4p8UOdl3zT-9">
          <mxGeometry y="80" width="110" height="40" as="geometry" />
        </mxCell>
        <mxCell id="oAKdzVdlAC4p8UOdl3zT-8" style="edgeStyle=orthogonalEdgeStyle;rounded=0;orthogonalLoop=1;jettySize=auto;html=1;exitX=0.5;exitY=1;exitDx=0;exitDy=0;entryX=0.25;entryY=0;entryDx=0;entryDy=0;endSize=4;startSize=4;" edge="1" parent="oAKdzVdlAC4p8UOdl3zT-9" source="oAKdzVdlAC4p8UOdl3zT-4" target="oAKdzVdlAC4p8UOdl3zT-2">
          <mxGeometry relative="1" as="geometry">
            <Array as="points">
              <mxPoint x="53" y="140" />
            </Array>
          </mxGeometry>
        </mxCell>
        <mxCell id="oAKdzVdlAC4p8UOdl3zT-4" value="IMS-Adapt" style="rounded=0;whiteSpace=wrap;html=1;fillColor=#d5e8d4;strokeColor=#82b366;fillStyle=auto;" vertex="1" parent="oAKdzVdlAC4p8UOdl3zT-9">
          <mxGeometry y="120" width="110" height="20" as="geometry" />
        </mxCell>
        <mxCell id="oAKdzVdlAC4p8UOdl3zT-7" style="edgeStyle=orthogonalEdgeStyle;rounded=0;orthogonalLoop=1;jettySize=auto;html=1;exitX=0.25;exitY=1;exitDx=0;exitDy=0;entryX=0.5;entryY=0;entryDx=0;entryDy=0;endSize=4;startSize=4;" edge="1" parent="oAKdzVdlAC4p8UOdl3zT-9" source="oAKdzVdlAC4p8UOdl3zT-5" target="oAKdzVdlAC4p8UOdl3zT-3">
          <mxGeometry relative="1" as="geometry" />
        </mxCell>
        <mxCell id="oAKdzVdlAC4p8UOdl3zT-5" value="Application" style="rounded=0;whiteSpace=wrap;html=1;fillColor=#dae8fc;strokeColor=#6c8ebf;" vertex="1" parent="oAKdzVdlAC4p8UOdl3zT-9">
          <mxGeometry width="210" height="50" as="geometry" />
        </mxCell>
        <mxCell id="oAKdzVdlAC4p8UOdl3zT-10" value="Tarjeta 1" style="text;html=1;align=center;verticalAlign=middle;resizable=0;points=[];autosize=1;strokeColor=none;fillColor=none;fontStyle=1;fontSize=16;" vertex="1" parent="1">
          <mxGeometry x="240" y="340" width="80" height="30" as="geometry" />
        </mxCell>
        <mxCell id="oAKdzVdlAC4p8UOdl3zT-11" value="" style="group" vertex="1" connectable="0" parent="1">
          <mxGeometry x="490" y="370" width="210" height="190" as="geometry" />
        </mxCell>
        <mxCell id="oAKdzVdlAC4p8UOdl3zT-12" value="" style="rounded=0;whiteSpace=wrap;html=1;" vertex="1" parent="oAKdzVdlAC4p8UOdl3zT-11">
          <mxGeometry width="210" height="190" as="geometry" />
        </mxCell>
        <mxCell id="oAKdzVdlAC4p8UOdl3zT-13" value="ESP-IDF / CMSIS&amp;nbsp;" style="rounded=0;whiteSpace=wrap;html=1;fillColor=#f5f5f5;fontColor=#333333;strokeColor=#666666;" vertex="1" parent="oAKdzVdlAC4p8UOdl3zT-11">
          <mxGeometry y="160" width="210" height="30" as="geometry" />
        </mxCell>
        <mxCell id="oAKdzVdlAC4p8UOdl3zT-14" value="IMS" style="rounded=0;whiteSpace=wrap;html=1;fillColor=#f8cecc;strokeColor=#b85450;" vertex="1" parent="oAKdzVdlAC4p8UOdl3zT-11">
          <mxGeometry y="80" width="110" height="40" as="geometry" />
        </mxCell>
        <mxCell id="oAKdzVdlAC4p8UOdl3zT-15" style="edgeStyle=orthogonalEdgeStyle;rounded=0;orthogonalLoop=1;jettySize=auto;html=1;exitX=0.5;exitY=1;exitDx=0;exitDy=0;entryX=0.25;entryY=0;entryDx=0;entryDy=0;endSize=4;startSize=4;" edge="1" parent="oAKdzVdlAC4p8UOdl3zT-11" source="oAKdzVdlAC4p8UOdl3zT-16" target="oAKdzVdlAC4p8UOdl3zT-13">
          <mxGeometry relative="1" as="geometry">
            <Array as="points">
              <mxPoint x="53" y="140" />
            </Array>
          </mxGeometry>
        </mxCell>
        <mxCell id="oAKdzVdlAC4p8UOdl3zT-16" value="IMS-Adapt" style="rounded=0;whiteSpace=wrap;html=1;fillColor=#d5e8d4;strokeColor=#82b366;fillStyle=auto;" vertex="1" parent="oAKdzVdlAC4p8UOdl3zT-11">
          <mxGeometry y="120" width="110" height="20" as="geometry" />
        </mxCell>
        <mxCell id="oAKdzVdlAC4p8UOdl3zT-17" style="edgeStyle=orthogonalEdgeStyle;rounded=0;orthogonalLoop=1;jettySize=auto;html=1;exitX=0.25;exitY=1;exitDx=0;exitDy=0;entryX=0.5;entryY=0;entryDx=0;entryDy=0;endSize=4;startSize=4;" edge="1" parent="oAKdzVdlAC4p8UOdl3zT-11" source="oAKdzVdlAC4p8UOdl3zT-18" target="oAKdzVdlAC4p8UOdl3zT-14">
          <mxGeometry relative="1" as="geometry" />
        </mxCell>
        <mxCell id="oAKdzVdlAC4p8UOdl3zT-18" value="Application" style="rounded=0;whiteSpace=wrap;html=1;fillColor=#dae8fc;strokeColor=#6c8ebf;" vertex="1" parent="oAKdzVdlAC4p8UOdl3zT-11">
          <mxGeometry width="210" height="50" as="geometry" />
        </mxCell>
        <mxCell id="oAKdzVdlAC4p8UOdl3zT-19" value="Tarjeta 2" style="text;html=1;align=center;verticalAlign=middle;resizable=0;points=[];autosize=1;strokeColor=none;fillColor=none;fontStyle=1;fontSize=16;" vertex="1" parent="1">
          <mxGeometry x="550" y="340" width="80" height="30" as="geometry" />
        </mxCell>
        <mxCell id="oAKdzVdlAC4p8UOdl3zT-20" value="Conector Común" style="rounded=0;whiteSpace=wrap;html=1;" vertex="1" parent="1">
          <mxGeometry x="180" y="610" width="520" height="30" as="geometry" />
        </mxCell>
        <mxCell id="oAKdzVdlAC4p8UOdl3zT-21" style="edgeStyle=orthogonalEdgeStyle;rounded=0;orthogonalLoop=1;jettySize=auto;html=1;exitX=0.5;exitY=1;exitDx=0;exitDy=0;entryX=0.2;entryY=0.014;entryDx=0;entryDy=0;entryPerimeter=0;" edge="1" parent="1" source="oAKdzVdlAC4p8UOdl3zT-2" target="oAKdzVdlAC4p8UOdl3zT-20">
          <mxGeometry relative="1" as="geometry" />
        </mxCell>
        <mxCell id="oAKdzVdlAC4p8UOdl3zT-22" style="edgeStyle=orthogonalEdgeStyle;rounded=0;orthogonalLoop=1;jettySize=auto;html=1;exitX=0.798;exitY=-0.043;exitDx=0;exitDy=0;entryX=0.5;entryY=1;entryDx=0;entryDy=0;exitPerimeter=0;" edge="1" parent="1" source="oAKdzVdlAC4p8UOdl3zT-20" target="oAKdzVdlAC4p8UOdl3zT-13">
          <mxGeometry relative="1" as="geometry">
            <mxPoint x="295" y="570" as="sourcePoint" />
            <mxPoint x="294" y="620" as="targetPoint" />
          </mxGeometry>
        </mxCell>
        <mxCell id="oAKdzVdlAC4p8UOdl3zT-24" style="edgeStyle=orthogonalEdgeStyle;rounded=0;orthogonalLoop=1;jettySize=auto;html=1;entryX=0.096;entryY=0.997;entryDx=0;entryDy=0;entryPerimeter=0;exitX=0.149;exitY=0.997;exitDx=0;exitDy=0;exitPerimeter=0;fillColor=#e1d5e7;strokeColor=#9673a6;strokeWidth=2;" edge="1" parent="1" source="oAKdzVdlAC4p8UOdl3zT-5" target="oAKdzVdlAC4p8UOdl3zT-18">
          <mxGeometry relative="1" as="geometry">
            <mxPoint x="430" y="510" as="sourcePoint" />
            <Array as="points">
              <mxPoint x="211" y="650" />
              <mxPoint x="510" y="650" />
              <mxPoint x="510" y="430" />
              <mxPoint x="510" y="430" />
            </Array>
          </mxGeometry>
        </mxCell>
        <mxCell id="oAKdzVdlAC4p8UOdl3zT-26" value="Mensaje" style="shape=parallelogram;perimeter=parallelogramPerimeter;whiteSpace=wrap;html=1;fixedSize=1;fillColor=#e1d5e7;strokeColor=#9673a6;" vertex="1" parent="1">
          <mxGeometry x="290" y="660" width="116" height="20" as="geometry" />
        </mxCell>
      </root>
    </mxGraphModel>
  </diagram>
</mxfile>
